<?xml version="1.0" encoding="UTF-8" standalone="no"?>
<!-- Created with Inkscape (http://www.inkscape.org/) -->

<svg
   xmlns:dc="http://purl.org/dc/elements/1.1/"
   xmlns:cc="http://creativecommons.org/ns#"
   xmlns:rdf="http://www.w3.org/1999/02/22-rdf-syntax-ns#"
   xmlns:svg="http://www.w3.org/2000/svg"
   xmlns="http://www.w3.org/2000/svg"
   xmlns:sodipodi="http://sodipodi.sourceforge.net/DTD/sodipodi-0.dtd"
   xmlns:inkscape="http://www.inkscape.org/namespaces/inkscape"
   width="67.73333mm"
   height="67.73333mm"
   viewBox="0 0 67.73333 67.73333"
   version="1.1"
   id="svg4536"
   inkscape:version="0.92.1 r"
   sodipodi:docname="icon.svg">
  <defs
     id="defs4530" />
  <sodipodi:namedview
     id="base"
     pagecolor="#ffffff"
     bordercolor="#666666"
     borderopacity="1.0"
     inkscape:pageopacity="0.0"
     inkscape:pageshadow="2"
     inkscape:zoom="1.4"
     inkscape:cx="212.75966"
     inkscape:cy="143.3024"
     inkscape:document-units="mm"
     inkscape:current-layer="layer1"
     showgrid="false"
     fit-margin-top="0"
     fit-margin-left="0"
     fit-margin-right="0"
     fit-margin-bottom="0"
     inkscape:window-width="1360"
     inkscape:window-height="739"
     inkscape:window-x="1366"
     inkscape:window-y="0"
     inkscape:window-maximized="1" />
  <metadata
     id="metadata4533">
    <rdf:RDF>
      <cc:Work
         rdf:about="">
        <dc:format>image/svg+xml</dc:format>
        <dc:type
           rdf:resource="http://purl.org/dc/dcmitype/StillImage" />
        <dc:title></dc:title>
      </cc:Work>
    </rdf:RDF>
  </metadata>
  <g
     inkscape:label="Layer 1"
     inkscape:groupmode="layer"
     id="layer1"
     transform="translate(25.551189,-147.47263)">
    <g
       id="g5128"
       style="fill:#ffffff;stroke-width:1;stroke-miterlimit:4;stroke-dasharray:none;stroke:#ffffff;stroke-opacity:1"
       transform="translate(2.8851746,1.2708978)">
      <path
         inkscape:connector-curvature="0"
         id="path5124"
         d="m -9.3005569,210.41999 c -0.4696211,-0.51893 -0.4641389,-0.54837 0.207536,-1.11466 1.2165523,-1.02569 1.2689144,-1.37105 1.2689144,-8.36948 v -6.63197 h 1.0583332 1.0583333 v 6.59736 c 0,4.03099 -0.1097788,6.88709 -0.2822077,7.34218 -0.3476085,0.91744 -1.2112289,1.86794 -2.1330649,2.34765 -0.6238261,0.32463 -0.7451791,0.30701 -1.1778443,-0.17108 z m 5.8300485,-3.53638 c -0.4957492,-0.49575 -0.6494317,-0.92922 -0.6494317,-1.83178 0,-2.11416 1.6200747,-3.33445 4.43177066,-3.33814 1.09851294,-0.001 1.12447914,-0.0219 1.12447914,-0.88651 0,-1.39018 -0.72343829,-1.86559 -2.5754094,-1.69243 -0.8390976,0.0785 -1.7013993,0.18446 -1.9162256,0.23557 -0.2347254,0.0559 -0.4252243,-0.1323 -0.4773753,-0.47149 -0.066176,-0.43041 0.1102128,-0.6331 0.7428579,-0.85364 2.6924986,-0.93861 5.1072201,-0.51947 5.8831874,1.02119 0.3910965,0.77651 0.4551812,1.52416 0.396875,4.63021 l -0.069535,3.70416 -0.7048923,0.0815 c -0.5164243,0.0597 -0.7500541,-0.0608 -0.873805,-0.45067 -0.1680395,-0.52945 -0.1732967,-0.52953 -1.01490057,-0.0164 -1.27790621,0.77919 -3.45341293,0.71256 -4.29759513,-0.13162 z m 4.00693607,-1.1005 c 0.84692303,-0.4019 0.89988203,-0.50505 0.89988203,-1.75287 v -1.32584 l -0.8268229,0.16536 c -0.45475259,0.0909 -1.05006506,0.16537 -1.32291661,0.16537 -0.65337659,0 -1.55442699,0.92022 -1.55442699,1.5875 0,0.63404 0.8897151,1.5875 1.48136787,1.5875 0.23266901,0 0.82798148,-0.19216 1.3229166,-0.42702 z m 5.70750113,-2.81413 c -0.7623439,-2.51023 -1.3820192,-4.71289 -1.3770583,-4.89479 0.00548,-0.20032 0.3767402,-0.33073 0.9416124,-0.33073 1.0878714,0 1.0586534,-0.0556 2.3272696,4.42845 0.4626504,1.63528 0.9050072,2.97473 0.9830196,2.97656 0.1781969,0.004 1.4824999,-4.77096 1.7154919,-6.28053 0.170045,-1.10172 0.194511,-1.12448 1.208635,-1.12448 0.569291,0 1.035077,0.1038 1.035077,0.23066 0,0.67008 -1.373447,5.48178 -2.105427,7.37611 l -0.843452,2.18281 H 8.8795518 7.6300041 Z m 8.6198362,4.03954 c -0.872384,-0.68622 -1.130041,-2.07261 -0.614497,-3.30647 0.50143,-1.2001 2.086527,-1.9758 4.054228,-1.98403 1.365724,-0.006 1.389063,-0.0191 1.389063,-0.79956 0,-0.45501 -0.23848,-1.03223 -0.558821,-1.35257 -0.474091,-0.47409 -0.785006,-0.53985 -2.050521,-0.43366 -0.820436,0.0688 -1.709547,0.21763 -1.975808,0.33064 -0.413663,0.17557 -0.471413,0.0943 -0.396875,-0.55853 0.07831,-0.68585 0.234858,-0.80008 1.530403,-1.11666 1.96006,-0.47897 3.591578,-0.20955 4.552971,0.75184 l 0.750734,0.75073 v 4.1214 4.12139 h -0.79375 c -0.627729,0 -0.79375,-0.11519 -0.79375,-0.55074 v -0.55075 l -0.891124,0.55075 c -1.192888,0.73724 -3.281765,0.75028 -4.202253,0.0262 z m 3.983858,-1.33376 c 0.797247,-0.48607 0.867658,-0.63267 0.793749,-1.65265 l -0.08111,-1.11927 -1.190625,0.0863 c -0.654844,0.0474 -1.458515,0.25856 -1.785937,0.46912 -1.110242,0.71398 -0.491424,2.75327 0.834757,2.7509 0.304867,-5.3e-4 0.947989,-0.24101 1.429161,-0.53438 z M 8.0316892,173.49841 c 0.8287517,-1.05359 0.6585267,-1.30177 -0.3600185,-0.52489 -1.1564593,0.88207 -1.3943726,0.88061 -0.6983148,-0.004 0.8597609,-1.09301 0.7116207,-2.29896 -0.5064786,-4.12308 -0.5801677,-0.8688 -1.180068,-2.04467 -1.3331136,-2.61305 -0.792144,-2.94179 1.8911701,-5.78932 7.4435493,-7.89905 0.767339,-0.29157 1.437446,-0.48784 1.489122,-0.43616 0.05168,0.0517 -0.566303,0.46658 -1.37329,0.92202 -0.80699,0.45544 -1.467252,0.87358 -1.467252,0.92921 0,0.0556 0.851109,-0.24521 1.891355,-0.66854 1.040244,-0.42333 1.938634,-0.72242 1.996419,-0.66463 0.05779,0.0578 -0.539795,0.469 -1.327955,0.91381 -2.102365,1.1865 -4.5259381,3.2985 -5.048297,4.39929 -0.5587815,1.17754 -0.3190373,2.10087 1.0428789,4.01644 1.4889931,2.0943 1.1217751,4.10047 -1.0543963,5.76032 -1.1525487,0.87909 -1.3895413,0.87656 -0.6942084,-0.007 z m -2.8605346,-1.34064 c -0.4128161,-0.5446 -0.5201973,-0.60044 -0.4061381,-0.21118 0.2715207,0.92664 -4.10882784,-3.82716 -4.8203879,-5.23135 -1.2802991,-2.52655 -0.62197294,-4.15315 2.8404686,-7.01826 5.6294335,-4.65825 6.439196,-5.73514 6.4497609,-8.57742 0.00365,-0.98566 0.032237,-1.79272 0.063497,-1.79348 0.2365613,-0.006 0.7495829,1.42397 0.9014649,2.51217 0.184362,1.32092 0.184579,1.32042 0.142335,-0.33121 -0.02326,-0.90977 -0.01558,-1.65391 0.01704,-1.65364 0.325552,0.003 0.866146,1.8569 0.864106,2.9639 -0.0045,2.42118 -0.88891,3.83905 -4.7440669,7.60529 -4.7730673,4.66299 -4.9387758,5.50978 -1.9623722,10.02808 0.8000682,1.21454 1.4008523,2.26207 1.3350742,2.32785 -0.065778,0.0658 -0.3721338,-0.21356 -0.6807887,-0.62075 z"
         style="fill:#ffffff;stroke-width:1;stroke-miterlimit:4;stroke-dasharray:none;stroke:#ffffff;stroke-opacity:1" />
      <path
         inkscape:connector-curvature="0"
         id="path5126"
         d="m -0.76512595,191.62373 c -0.99250835,-0.12758 -2.30219585,-0.47582 -2.91041655,-0.77386 -0.9433776,-0.46227 -0.9892339,-0.51872 -0.3121059,-0.38419 0.4365625,0.0867 2.9491121,0.22729 5.5834436,0.31234 7.2916517,0.23544 14.1529478,-0.65035 17.3633708,-2.24158 1.691841,-0.83855 1.951466,-0.72206 0.713091,0.31996 -1.01973,0.85805 -0.715774,0.87255 0.747906,0.0357 1.378273,-0.78804 1.463998,-0.46283 0.161094,0.61114 -1.130702,0.93202 -3.859985,1.72338 -7.37099,2.13724 -2.785662,0.32836 -11.3707456,0.31808 -13.97539295,-0.0167 z m 0.0847691,-1.74015 c -6.05457555,-0.37062 -10.16495415,-1.42996 -9.99882515,-2.57692 0.09424,-0.65066 2.480875,-1.89022 4.1547788,-2.15788 1.3289222,-0.21251 1.3488522,0.26498 0.023212,0.55614 -0.433225,0.0952 -0.8533902,0.27932 -0.9337005,0.40927 -0.08031,0.12994 0.3500125,0.0613 0.9562727,-0.15265 1.2462692,-0.43971 2.1999095,-0.50959 1.9743834,-0.14469 -0.083017,0.13433 -0.4769971,0.31855 -0.8755107,0.40939 -0.8455017,0.19273 -1.8152546,0.85744 -1.5857523,1.08694 0.7179185,0.71792 8.5158001,1.19733 14.4506554,0.88842 6.7907672,-0.35346 10.6199022,-1.1798 10.6199022,-2.29181 0,-0.32995 0.07648,-0.36651 0.299715,-0.14328 0.48705,0.48705 0.04989,1.11636 -1.155579,1.66352 -0.62068,0.28173 -0.949917,0.51223 -0.731636,0.51223 0.822145,0 2.645833,-1.02258 2.645833,-1.48357 0,-0.34465 0.07648,-0.38625 0.299715,-0.16301 0.8554,0.8554 -0.952587,1.89279 -4.728594,2.71319 -4.015372,0.87241 -9.9505628,1.2092 -15.41486985,0.87471 z m -0.60082455,-0.50206 c -0.087919,-0.0879 -0.3161221,-0.0973 -0.5071181,-0.0209 -0.2110669,0.0845 -0.148372,0.14715 0.1598525,0.15985 0.2789147,0.0115 0.4351842,-0.0511 0.3472656,-0.13896 z m 8.8690533,-0.0154 c -0.1819011,-0.0734 -0.4795573,-0.0734 -0.6614583,0 -0.1819011,0.0734 -0.033073,0.13345 0.3307291,0.13345 0.3638021,0 0.5126302,-0.06 0.3307292,-0.13345 z m -6.0720708,-3.76983 c -1.74606415,-0.44548 -3.8118879,-1.43415 -4.0925801,-1.95862 -0.240388,-0.44917 -0.187956,-0.62634 0.3030122,-1.02391 0.6837116,-0.55363 1.35946141,-0.63392 1.2626808,-0.15002 -0.04161,0.20806 0.16540056,0.29821 0.55808851,0.24306 0.36339884,-0.0511 0.55649942,0.0219 0.46213075,0.17461 -0.28273718,0.45748 4.04800384,0.65707 6.72048054,0.30973 2.4558518,-0.31919 2.4720126,-0.31751 4.0101992,0.41768 0.849427,0.40599 1.544413,0.81874 1.544413,0.91722 0,0.0985 -0.68461,0.38818 -1.521354,0.64376 -1.6886954,0.51581 -7.7934316,0.79737 -9.2470709,0.42649 z m -1.84062517,-4.79715 c -1.37944033,-0.27291 -3.24333563,-1.20975 -3.44322093,-1.73064 -0.1731177,-0.45114 0.6110483,-1.4334 1.1443204,-1.4334 0.1957271,0 0.3558678,0.16745 0.3558678,0.3721 0,0.24185 0.1852446,0.32367 0.5291666,0.23373 0.3581411,-0.0937 0.5291667,-0.008 0.5291667,0.26466 0,0.68172 4.4180228,0.8693 8.4689099,0.35957 3.0127966,-0.37911 3.4645576,-0.38218 4.1738146,-0.0284 0.952141,0.47499 1.498889,1.07495 1.166704,1.28025 -1.235625,0.76366 -10.1377926,1.23346 -12.92472907,0.68208 z m 17.23925807,-1.19596 0.79375,-0.65872 -0.983689,0.40365 c -1.670966,0.68568 -1.642454,0.46383 0.164782,-1.2822 1.679374,-1.6225 1.910226,-2.07097 1.780765,-3.45943 -0.07219,-0.7742 -0.825624,-1.46879 -1.598178,-1.47335 -0.540462,-0.003 -0.602126,-0.0586 -0.289722,-0.26053 0.300368,-0.19411 0.183981,-0.25747 -0.478636,-0.26053 -0.515461,-0.002 -0.808263,-0.11286 -0.711989,-0.26864 0.314717,-0.50922 2.494595,-0.2831 3.83917,0.39825 2.719388,1.37802 2.809817,4.05766 0.20401,6.04521 -1.701914,1.29812 -4.20647,2.04967 -2.720263,0.81629 z M -3.7979511,176.2822 c -1.453262,-0.24197 -3.4969888,-1.13641 -3.4969888,-1.53047 0,-0.41825 0.6543931,-0.77625 2.6429328,-1.44588 2.0176045,-0.67942 2.6542658,-0.68481 1.7378521,-0.0147 -0.6050026,0.44239 -0.5516541,0.45422 0.5818991,0.12913 1.1499786,-0.32981 1.0857778,0.0543 -0.1340384,0.80199 l -0.9921875,0.60814 1.8520833,0.21265 c 1.96330982,0.22542 10.0203392,-0.14529 12.6999995,-0.58434 2.151107,-0.35244 2.515272,-0.32254 1.719791,0.1412 -0.636352,0.37098 -0.616264,0.38062 0.529167,0.25396 l 1.190625,-0.13165 -1.112607,0.53525 c -1.714577,0.82484 -5.9702038,1.31296 -11.1905174,1.28355 -2.54661443,-0.0143 -5.2592192,-0.13082 -6.0280107,-0.25882 z"
         style="fill:#ffffff;stroke-width:1;stroke-miterlimit:4;stroke-dasharray:none;stroke:#ffffff;stroke-opacity:1" />
    </g>
    <g
       id="g5122"
       transform="translate(2.8851746,1.2708978)">
      <path
         style="fill:#f14426;stroke-width:0.26458332"
         d="m -9.3005569,210.41999 c -0.4696211,-0.51893 -0.4641389,-0.54837 0.207536,-1.11466 1.2165523,-1.02569 1.2689144,-1.37105 1.2689144,-8.36948 v -6.63197 h 1.0583332 1.0583333 v 6.59736 c 0,4.03099 -0.1097788,6.88709 -0.2822077,7.34218 -0.3476085,0.91744 -1.2112289,1.86794 -2.1330649,2.34765 -0.6238261,0.32463 -0.7451791,0.30701 -1.1778443,-0.17108 z m 5.8300485,-3.53638 c -0.4957492,-0.49575 -0.6494317,-0.92922 -0.6494317,-1.83178 0,-2.11416 1.6200747,-3.33445 4.43177066,-3.33814 1.09851294,-0.001 1.12447914,-0.0219 1.12447914,-0.88651 0,-1.39018 -0.72343829,-1.86559 -2.5754094,-1.69243 -0.8390976,0.0785 -1.7013993,0.18446 -1.9162256,0.23557 -0.2347254,0.0559 -0.4252243,-0.1323 -0.4773753,-0.47149 -0.066176,-0.43041 0.1102128,-0.6331 0.7428579,-0.85364 2.6924986,-0.93861 5.1072201,-0.51947 5.8831874,1.02119 0.3910965,0.77651 0.4551812,1.52416 0.396875,4.63021 l -0.069535,3.70416 -0.7048923,0.0815 c -0.5164243,0.0597 -0.7500541,-0.0608 -0.873805,-0.45067 -0.1680395,-0.52945 -0.1732967,-0.52953 -1.01490057,-0.0164 -1.27790621,0.77919 -3.45341293,0.71256 -4.29759513,-0.13162 z m 4.00693607,-1.1005 c 0.84692303,-0.4019 0.89988203,-0.50505 0.89988203,-1.75287 v -1.32584 l -0.8268229,0.16536 c -0.45475259,0.0909 -1.05006506,0.16537 -1.32291661,0.16537 -0.65337659,0 -1.55442699,0.92022 -1.55442699,1.5875 0,0.63404 0.8897151,1.5875 1.48136787,1.5875 0.23266901,0 0.82798148,-0.19216 1.3229166,-0.42702 z m 5.70750113,-2.81413 c -0.7623439,-2.51023 -1.3820192,-4.71289 -1.3770583,-4.89479 0.00548,-0.20032 0.3767402,-0.33073 0.9416124,-0.33073 1.0878714,0 1.0586534,-0.0556 2.3272696,4.42845 0.4626504,1.63528 0.9050072,2.97473 0.9830196,2.97656 0.1781969,0.004 1.4824999,-4.77096 1.7154919,-6.28053 0.170045,-1.10172 0.194511,-1.12448 1.208635,-1.12448 0.569291,0 1.035077,0.1038 1.035077,0.23066 0,0.67008 -1.373447,5.48178 -2.105427,7.37611 l -0.843452,2.18281 H 8.8795518 7.6300041 Z m 8.6198362,4.03954 c -0.872384,-0.68622 -1.130041,-2.07261 -0.614497,-3.30647 0.50143,-1.2001 2.086527,-1.9758 4.054228,-1.98403 1.365724,-0.006 1.389063,-0.0191 1.389063,-0.79956 0,-0.45501 -0.23848,-1.03223 -0.558821,-1.35257 -0.474091,-0.47409 -0.785006,-0.53985 -2.050521,-0.43366 -0.820436,0.0688 -1.709547,0.21763 -1.975808,0.33064 -0.413663,0.17557 -0.471413,0.0943 -0.396875,-0.55853 0.07831,-0.68585 0.234858,-0.80008 1.530403,-1.11666 1.96006,-0.47897 3.591578,-0.20955 4.552971,0.75184 l 0.750734,0.75073 v 4.1214 4.12139 h -0.79375 c -0.627729,0 -0.79375,-0.11519 -0.79375,-0.55074 v -0.55075 l -0.891124,0.55075 c -1.192888,0.73724 -3.281765,0.75028 -4.202253,0.0262 z m 3.983858,-1.33376 c 0.797247,-0.48607 0.867658,-0.63267 0.793749,-1.65265 l -0.08111,-1.11927 -1.190625,0.0863 c -0.654844,0.0474 -1.458515,0.25856 -1.785937,0.46912 -1.110242,0.71398 -0.491424,2.75327 0.834757,2.7509 0.304867,-5.3e-4 0.947989,-0.24101 1.429161,-0.53438 z M 8.0316892,173.49841 c 0.8287517,-1.05359 0.6585267,-1.30177 -0.3600185,-0.52489 -1.1564593,0.88207 -1.3943726,0.88061 -0.6983148,-0.004 0.8597609,-1.09301 0.7116207,-2.29896 -0.5064786,-4.12308 -0.5801677,-0.8688 -1.180068,-2.04467 -1.3331136,-2.61305 -0.792144,-2.94179 1.8911701,-5.78932 7.4435493,-7.89905 0.767339,-0.29157 1.437446,-0.48784 1.489122,-0.43616 0.05168,0.0517 -0.566303,0.46658 -1.37329,0.92202 -0.80699,0.45544 -1.467252,0.87358 -1.467252,0.92921 0,0.0556 0.851109,-0.24521 1.891355,-0.66854 1.040244,-0.42333 1.938634,-0.72242 1.996419,-0.66463 0.05779,0.0578 -0.539795,0.469 -1.327955,0.91381 -2.102365,1.1865 -4.5259381,3.2985 -5.048297,4.39929 -0.5587815,1.17754 -0.3190373,2.10087 1.0428789,4.01644 1.4889931,2.0943 1.1217751,4.10047 -1.0543963,5.76032 -1.1525487,0.87909 -1.3895413,0.87656 -0.6942084,-0.007 z m -2.8605346,-1.34064 c -0.4128161,-0.5446 -0.5201973,-0.60044 -0.4061381,-0.21118 0.2715207,0.92664 -4.10882784,-3.82716 -4.8203879,-5.23135 -1.2802991,-2.52655 -0.62197294,-4.15315 2.8404686,-7.01826 5.6294335,-4.65825 6.439196,-5.73514 6.4497609,-8.57742 0.00365,-0.98566 0.032237,-1.79272 0.063497,-1.79348 0.2365613,-0.006 0.7495829,1.42397 0.9014649,2.51217 0.184362,1.32092 0.184579,1.32042 0.142335,-0.33121 -0.02326,-0.90977 -0.01558,-1.65391 0.01704,-1.65364 0.325552,0.003 0.866146,1.8569 0.864106,2.9639 -0.0045,2.42118 -0.88891,3.83905 -4.7440669,7.60529 -4.7730673,4.66299 -4.9387758,5.50978 -1.9623722,10.02808 0.8000682,1.21454 1.4008523,2.26207 1.3350742,2.32785 -0.065778,0.0658 -0.3721338,-0.21356 -0.6807887,-0.62075 z"
         id="path5103"
         inkscape:connector-curvature="0" />
      <path
         style="fill:#2c5fac;stroke-width:0.26458332"
         d="m -0.76512595,191.62373 c -0.99250835,-0.12758 -2.30219585,-0.47582 -2.91041655,-0.77386 -0.9433776,-0.46227 -0.9892339,-0.51872 -0.3121059,-0.38419 0.4365625,0.0867 2.9491121,0.22729 5.5834436,0.31234 7.2916517,0.23544 14.1529478,-0.65035 17.3633708,-2.24158 1.691841,-0.83855 1.951466,-0.72206 0.713091,0.31996 -1.01973,0.85805 -0.715774,0.87255 0.747906,0.0357 1.378273,-0.78804 1.463998,-0.46283 0.161094,0.61114 -1.130702,0.93202 -3.859985,1.72338 -7.37099,2.13724 -2.785662,0.32836 -11.3707456,0.31808 -13.97539295,-0.0167 z m 0.0847691,-1.74015 c -6.05457555,-0.37062 -10.16495415,-1.42996 -9.99882515,-2.57692 0.09424,-0.65066 2.480875,-1.89022 4.1547788,-2.15788 1.3289222,-0.21251 1.3488522,0.26498 0.023212,0.55614 -0.433225,0.0952 -0.8533902,0.27932 -0.9337005,0.40927 -0.08031,0.12994 0.3500125,0.0613 0.9562727,-0.15265 1.2462692,-0.43971 2.1999095,-0.50959 1.9743834,-0.14469 -0.083017,0.13433 -0.4769971,0.31855 -0.8755107,0.40939 -0.8455017,0.19273 -1.8152546,0.85744 -1.5857523,1.08694 0.7179185,0.71792 8.5158001,1.19733 14.4506554,0.88842 6.7907672,-0.35346 10.6199022,-1.1798 10.6199022,-2.29181 0,-0.32995 0.07648,-0.36651 0.299715,-0.14328 0.48705,0.48705 0.04989,1.11636 -1.155579,1.66352 -0.62068,0.28173 -0.949917,0.51223 -0.731636,0.51223 0.822145,0 2.645833,-1.02258 2.645833,-1.48357 0,-0.34465 0.07648,-0.38625 0.299715,-0.16301 0.8554,0.8554 -0.952587,1.89279 -4.728594,2.71319 -4.015372,0.87241 -9.9505628,1.2092 -15.41486985,0.87471 z m -0.60082455,-0.50206 c -0.087919,-0.0879 -0.3161221,-0.0973 -0.5071181,-0.0209 -0.2110669,0.0845 -0.148372,0.14715 0.1598525,0.15985 0.2789147,0.0115 0.4351842,-0.0511 0.3472656,-0.13896 z m 8.8690533,-0.0154 c -0.1819011,-0.0734 -0.4795573,-0.0734 -0.6614583,0 -0.1819011,0.0734 -0.033073,0.13345 0.3307291,0.13345 0.3638021,0 0.5126302,-0.06 0.3307292,-0.13345 z m -6.0720708,-3.76983 c -1.74606415,-0.44548 -3.8118879,-1.43415 -4.0925801,-1.95862 -0.240388,-0.44917 -0.187956,-0.62634 0.3030122,-1.02391 0.6837116,-0.55363 1.35946141,-0.63392 1.2626808,-0.15002 -0.04161,0.20806 0.16540056,0.29821 0.55808851,0.24306 0.36339884,-0.0511 0.55649942,0.0219 0.46213075,0.17461 -0.28273718,0.45748 4.04800384,0.65707 6.72048054,0.30973 2.4558518,-0.31919 2.4720126,-0.31751 4.0101992,0.41768 0.849427,0.40599 1.544413,0.81874 1.544413,0.91722 0,0.0985 -0.68461,0.38818 -1.521354,0.64376 -1.6886954,0.51581 -7.7934316,0.79737 -9.2470709,0.42649 z m -1.84062517,-4.79715 c -1.37944033,-0.27291 -3.24333563,-1.20975 -3.44322093,-1.73064 -0.1731177,-0.45114 0.6110483,-1.4334 1.1443204,-1.4334 0.1957271,0 0.3558678,0.16745 0.3558678,0.3721 0,0.24185 0.1852446,0.32367 0.5291666,0.23373 0.3581411,-0.0937 0.5291667,-0.008 0.5291667,0.26466 0,0.68172 4.4180228,0.8693 8.4689099,0.35957 3.0127966,-0.37911 3.4645576,-0.38218 4.1738146,-0.0284 0.952141,0.47499 1.498889,1.07495 1.166704,1.28025 -1.235625,0.76366 -10.1377926,1.23346 -12.92472907,0.68208 z m 17.23925807,-1.19596 0.79375,-0.65872 -0.983689,0.40365 c -1.670966,0.68568 -1.642454,0.46383 0.164782,-1.2822 1.679374,-1.6225 1.910226,-2.07097 1.780765,-3.45943 -0.07219,-0.7742 -0.825624,-1.46879 -1.598178,-1.47335 -0.540462,-0.003 -0.602126,-0.0586 -0.289722,-0.26053 0.300368,-0.19411 0.183981,-0.25747 -0.478636,-0.26053 -0.515461,-0.002 -0.808263,-0.11286 -0.711989,-0.26864 0.314717,-0.50922 2.494595,-0.2831 3.83917,0.39825 2.719388,1.37802 2.809817,4.05766 0.20401,6.04521 -1.701914,1.29812 -4.20647,2.04967 -2.720263,0.81629 z M -3.7979511,176.2822 c -1.453262,-0.24197 -3.4969888,-1.13641 -3.4969888,-1.53047 0,-0.41825 0.6543931,-0.77625 2.6429328,-1.44588 2.0176045,-0.67942 2.6542658,-0.68481 1.7378521,-0.0147 -0.6050026,0.44239 -0.5516541,0.45422 0.5818991,0.12913 1.1499786,-0.32981 1.0857778,0.0543 -0.1340384,0.80199 l -0.9921875,0.60814 1.8520833,0.21265 c 1.96330982,0.22542 10.0203392,-0.14529 12.6999995,-0.58434 2.151107,-0.35244 2.515272,-0.32254 1.719791,0.1412 -0.636352,0.37098 -0.616264,0.38062 0.529167,0.25396 l 1.190625,-0.13165 -1.112607,0.53525 c -1.714577,0.82484 -5.9702038,1.31296 -11.1905174,1.28355 -2.54661443,-0.0143 -5.2592192,-0.13082 -6.0280107,-0.25882 z"
         id="path5101"
         inkscape:connector-curvature="0" />
    </g>
  </g>
</svg>
